<?xml version="1.0" encoding="iso-8859-1"?>
<!-- Uploaded to: SVG Repo, www.svgrepo.com, Generator: SVG Repo Mixer Tools -->
<svg fill="#000000" height="800px" width="800px" version="1.1" id="Layer_1" xmlns="http://www.w3.org/2000/svg" xmlns:xlink="http://www.w3.org/1999/xlink" 
	 viewBox="0 0 512 512" xml:space="preserve">
<g>
	<g>
		<path d="M450.783,144.696h-41.791c-16.933-38.557-47.599-69.252-86.209-86.209V16.696c0-9.22-7.475-16.696-16.696-16.696H205.913
			c-9.22,0-16.696,7.475-16.696,16.696v41.791c-38.557,16.933-69.252,47.599-86.209,86.209H61.217
			c-9.22,0-16.696,7.475-16.696,16.696v100.174c0,9.22,7.475,16.696,16.696,16.696h41.791
			c16.934,38.557,47.599,69.252,86.209,86.209v130.835c0,9.22,7.475,16.696,16.696,16.696h100.174
			c9.22,0,16.696-7.475,16.696-16.696V364.469c38.557-16.934,69.252-47.599,86.209-86.209h41.791c9.22,0,16.696-7.475,16.696-16.696
			V161.391C467.478,152.171,460.003,144.696,450.783,144.696z M314.447,130.224c5.159-2.984,8.336-8.491,8.336-14.452V95.895
			c20.128,11.738,37.062,28.672,48.8,48.8h-19.877c-5.959,0-11.469,3.177-14.452,8.337c-2.983,5.156-8.527,8.359-14.472,8.359
			c-9.206,0-16.696-7.49-16.696-16.696C306.087,138.752,309.29,133.207,314.447,130.224z M189.217,95.895v19.877
			c0,5.959,3.177,11.468,8.336,14.452c5.157,2.983,8.36,8.528,8.36,14.472c0,9.206-7.49,16.696-16.696,16.696
			c-5.945,0-11.489-3.203-14.472-8.359c-2.984-5.159-8.493-8.337-14.452-8.337h-19.877
			C152.155,124.567,169.089,107.634,189.217,95.895z M197.553,292.733c-5.159,2.984-8.336,8.491-8.336,14.452v19.877
			c-20.128-11.738-37.062-28.672-48.8-48.8h19.877c5.959,0,11.469-3.177,14.452-8.337c2.983-5.156,8.527-8.359,14.472-8.359
			c9.206,0,16.696,7.49,16.696,16.696C205.913,284.205,202.71,289.75,197.553,292.733z M322.783,327.061v-19.877
			c0-5.959-3.177-11.468-8.336-14.452c-5.157-2.983-8.36-8.528-8.36-14.472c0-9.206,7.49-16.696,16.696-16.696
			c5.945,0,11.489,3.203,14.472,8.359c2.984,5.159,8.493,8.337,14.452,8.337h19.877
			C359.845,298.389,342.911,315.323,322.783,327.061z M434.087,244.87h-73.981c-9.405-10.48-22.974-16.696-37.324-16.696
			c-27.618,0-50.087,22.469-50.087,50.087c0,14.349,6.216,27.918,16.696,37.324v163.024h-66.783V315.585
			c10.479-9.405,16.696-22.974,16.696-37.324c0-27.618-22.469-50.087-50.087-50.087c-14.35,0-27.918,6.215-37.324,16.696H77.913
			v-66.783h36.304c0.034,0,0.069,0.004,0.104,0.004c0.038,0,0.075-0.004,0.112-0.004h37.461
			c9.405,10.48,22.974,16.696,37.324,16.696c27.618,0,50.087-22.469,50.087-50.087c0-14.349-6.216-27.918-16.696-37.324V33.391
			h66.783v73.981c-10.479,9.405-16.696,22.974-16.696,37.324c0,27.618,22.469,50.087,50.087,50.087
			c14.35,0,27.919-6.215,37.324-16.696h37.461c0.038,0,0.075,0.004,0.112,0.004c0.034,0,0.069-0.004,0.104-0.004h36.304V244.87z"/>
	</g>
</g>
</svg>